<svg width="60" height="60" viewBox="0 0 60 60" fill="none" xmlns="http://www.w3.org/2000/svg">
<path d="M20 15C17.2386 15 15 17.2386 15 20V24C15 35.598 24.402 45 36 45H40C42.7614 45 45 42.7614 45 40V37.2361C45 36.0998 44.358 35.061 43.3416 34.5528L38.5098 32.1369C36.8769 31.3204 34.8994 32.1395 34.3221 33.8715L33.7266 35.6581C33.5003 36.3369 32.8039 36.741 32.1023 36.6007C27.7106 35.7223 24.2777 32.2894 23.3993 27.8977C23.259 27.1961 23.6631 26.4997 24.3419 26.2734L26.5592 25.5344C28.0464 25.0386 28.9012 23.4815 28.521 21.9607L27.3489 17.2724C27.015 15.9369 25.815 15 24.4384 15H20Z" fill="#0A0A0A"/>
</svg>
